<mxfile host="app.diagrams.net" agent="Mozilla/5.0 (Windows NT 10.0; Win64; x64) AppleWebKit/537.36 (KHTML, like Gecko) Chrome/134.0.0.0 Safari/537.36" version="26.1.1">
  <diagram id="6a731a19-8d31-9384-78a2-239565b7b9f0" name="Page-1">
    <mxGraphModel dx="1434" dy="-47" grid="1" gridSize="10" guides="1" tooltips="1" connect="1" arrows="1" fold="1" page="1" pageScale="1" pageWidth="1169" pageHeight="827" background="none" math="0" shadow="0">
      <root>
        <mxCell id="0" />
        <mxCell id="1" parent="0" />
        <mxCell id="25DuHIomvFG1VKVXxtKU-219" style="edgeStyle=orthogonalEdgeStyle;rounded=0;orthogonalLoop=1;jettySize=auto;html=1;strokeWidth=3;strokeColor=#000000;" parent="1" source="25DuHIomvFG1VKVXxtKU-220" target="25DuHIomvFG1VKVXxtKU-222" edge="1">
          <mxGeometry relative="1" as="geometry" />
        </mxCell>
        <mxCell id="25DuHIomvFG1VKVXxtKU-220" value="createElement()" style="rounded=1;fillColor=#6CC7E6;strokeColor=none;strokeWidth=2;fontFamily=Helvetica;html=1;gradientColor=none;fontColor=#ffffff;fontSize=14;" parent="1" vertex="1">
          <mxGeometry x="70.00476190476195" y="960" width="127" height="50" as="geometry" />
        </mxCell>
        <mxCell id="25DuHIomvFG1VKVXxtKU-221" style="edgeStyle=orthogonalEdgeStyle;rounded=1;orthogonalLoop=1;jettySize=auto;html=1;entryX=0;entryY=0.5;entryDx=0;entryDy=0;strokeWidth=3;curved=0;strokeColor=#000000;" parent="1" source="25DuHIomvFG1VKVXxtKU-222" target="25DuHIomvFG1VKVXxtKU-227" edge="1">
          <mxGeometry relative="1" as="geometry" />
        </mxCell>
        <mxCell id="25DuHIomvFG1VKVXxtKU-222" value="React Element" style="rounded=1;fillColor=#6CC7E6;strokeColor=none;strokeWidth=2;fontFamily=Helvetica;html=1;gradientColor=none;fontSize=14;fontColor=#FFFFFF;" parent="1" vertex="1">
          <mxGeometry x="320.00476190476184" y="960" width="127" height="50" as="geometry" />
        </mxCell>
        <mxCell id="25DuHIomvFG1VKVXxtKU-223" value="React Element" style="rounded=1;fillColor=#0B5199;strokeColor=none;strokeWidth=2;fontFamily=Helvetica;html=1;gradientColor=none;fontSize=14;fontColor=#ffffff;" parent="1" vertex="1">
          <mxGeometry x="320.00476190476184" y="1094.5" width="127" height="50" as="geometry" />
        </mxCell>
        <mxCell id="25DuHIomvFG1VKVXxtKU-224" style="edgeStyle=orthogonalEdgeStyle;rounded=0;orthogonalLoop=1;jettySize=auto;html=1;strokeWidth=3;strokeColor=#000000;" parent="1" source="25DuHIomvFG1VKVXxtKU-225" target="25DuHIomvFG1VKVXxtKU-223" edge="1">
          <mxGeometry relative="1" as="geometry" />
        </mxCell>
        <mxCell id="25DuHIomvFG1VKVXxtKU-225" value="createElement()" style="rounded=1;fillColor=#0B5199;strokeColor=none;strokeWidth=2;fontFamily=Helvetica;html=1;gradientColor=none;fontSize=14;fontColor=#FFFFFF;" parent="1" vertex="1">
          <mxGeometry x="70.00476190476184" y="1094.5" width="127" height="50" as="geometry" />
        </mxCell>
        <mxCell id="25DuHIomvFG1VKVXxtKU-226" style="edgeStyle=orthogonalEdgeStyle;rounded=0;orthogonalLoop=1;jettySize=auto;html=1;strokeWidth=3;strokeColor=#000000;" parent="1" source="25DuHIomvFG1VKVXxtKU-227" target="25DuHIomvFG1VKVXxtKU-230" edge="1">
          <mxGeometry relative="1" as="geometry" />
        </mxCell>
        <mxCell id="25DuHIomvFG1VKVXxtKU-227" value="DOM" style="rounded=1;fillColor=#6CC7E6;strokeColor=none;strokeWidth=2;fontFamily=Helvetica;html=1;gradientColor=none;fontColor=#FFFFFF;fontStyle=0" parent="1" vertex="1">
          <mxGeometry x="570.0047619047618" y="960" width="127" height="50" as="geometry" />
        </mxCell>
        <mxCell id="25DuHIomvFG1VKVXxtKU-228" style="edgeStyle=orthogonalEdgeStyle;rounded=1;orthogonalLoop=1;jettySize=auto;html=1;entryX=0.5;entryY=0;entryDx=0;entryDy=0;exitX=1;exitY=0.5;exitDx=0;exitDy=0;curved=0;strokeWidth=3;strokeColor=#000000;" parent="1" source="25DuHIomvFG1VKVXxtKU-229" target="25DuHIomvFG1VKVXxtKU-230" edge="1">
          <mxGeometry relative="1" as="geometry" />
        </mxCell>
        <mxCell id="25DuHIomvFG1VKVXxtKU-229" value="差異" style="rounded=1;fillColor=#f1e581;strokeColor=none;strokeWidth=2;fontFamily=Helvetica;html=1;gradientColor=none;fontColor=#000000;fontSize=14;fontStyle=0" parent="1" vertex="1">
          <mxGeometry x="470.00476190476184" y="1024.5" width="127" height="50" as="geometry" />
        </mxCell>
        <mxCell id="25DuHIomvFG1VKVXxtKU-230" value="DOM" style="rounded=1;fillColor=#0B5199;strokeColor=none;strokeWidth=2;fontFamily=Helvetica;html=1;gradientColor=none;fontColor=#FFFFFF;" parent="1" vertex="1">
          <mxGeometry x="570.0047619047618" y="1094.5" width="127" height="50" as="geometry" />
        </mxCell>
        <mxCell id="25DuHIomvFG1VKVXxtKU-231" value="" style="edgeStyle=elbowEdgeStyle;elbow=horizontal;strokeWidth=3;strokeColor=#000000;fontFamily=Helvetica;html=1;exitX=0.5;exitY=1;exitDx=0;exitDy=0;entryX=0;entryY=0.5;entryDx=0;entryDy=0;" parent="1" source="25DuHIomvFG1VKVXxtKU-222" target="25DuHIomvFG1VKVXxtKU-229" edge="1">
          <mxGeometry x="6.448979591836746" y="830.5" width="131.97278911564624" height="100" as="geometry">
            <mxPoint x="360" y="975" as="sourcePoint" />
            <mxPoint x="470" y="1054.5" as="targetPoint" />
            <Array as="points">
              <mxPoint x="384" y="1034.5" />
            </Array>
          </mxGeometry>
        </mxCell>
        <mxCell id="25DuHIomvFG1VKVXxtKU-232" value="" style="edgeStyle=elbowEdgeStyle;elbow=horizontal;strokeWidth=3;strokeColor=#000000;fontFamily=Helvetica;html=1;exitX=0.5;exitY=0;exitDx=0;exitDy=0;entryX=0;entryY=0.5;entryDx=0;entryDy=0;" parent="1" source="25DuHIomvFG1VKVXxtKU-223" target="25DuHIomvFG1VKVXxtKU-229" edge="1">
          <mxGeometry x="6.448979591836746" y="830.5" width="131.97278911564624" height="100" as="geometry">
            <mxPoint x="394" y="1020.5" as="sourcePoint" />
            <mxPoint x="480" y="1059.5" as="targetPoint" />
            <Array as="points">
              <mxPoint x="384" y="1074.5" />
            </Array>
          </mxGeometry>
        </mxCell>
      </root>
    </mxGraphModel>
  </diagram>
</mxfile>
